{
  "accessors": [
    {
      "bufferView": 0,
      "componentType": 5126,
      "count": 1613,
      "max": [
        9.600000381469727,
        0.0,
        3.6000001430511475
      ],
      "min": [
        -9.600000381469727,
        0.0,
        -3.6000001430511475
      ],
      "normalized": false,
      "type": "VEC3"
    },
    {
      "bufferView": 1,
      "componentType": 5126,
      "count": 1613,
      "normalized": false,
      "type": "VEC3"
    },
    {
      "bufferView": 2,
      "componentType": 5126,
      "count": 1613,
      "normalized": false,
      "type": "VEC2"
    },
    {
      "bufferView": 3,
      "componentType": 5123,
      "count": 6144,
      "normalized": false,
      "type": "SCALAR"
    }
  ],
  "asset": {
    "generator": "Khronos glTF Blender I/O v1.3.48",
    "version": "2.0"
  },
  "bufferViews": [
    {
      "buffer": 0,
      "byteLength": 19356,
      "target": 34962
    },
    {
      "buffer": 0,
      "byteLength": 19356,
      "byteOffset": 19356,
      "target": 34962
    },
    {
      "buffer": 0,
      "byteLength": 12904,
      "byteOffset": 38712,
      "target": 34962
    },
    {
      "buffer": 0,
      "byteLength": 12288,
      "byteOffset": 51616,
      "target": 34963
    }
  ],
  "buffers": [
    {
      "byteLength": 63904,
      "uri": "plane_single.bin"
    }
  ],
  "images": [
    {
      "name": "front",
      "uri": "front.png"
    }
  ],
  "materials": [
    {
      "doubleSided": true,
      "name": "rear",
      "pbrMetallicRoughness": {
        "baseColorTexture": {
          "index": 0
        },
        "metallicFactor": 0.0,
        "roughnessFactor": 0.5
      }
    }
  ],
  "meshes": [
    {
      "name": "front_wide",
      "primitives": [
        {
          "attributes": {
            "NORMAL": 1,
            "POSITION": 0,
            "TEXCOORD_0": 2
          },
          "indices": 3,
          "material": 0,
          "mode": 4
        }
      ]
    }
  ],
  "nodes": [
    {
      "mesh": 0,
      "name": "front_wide"
    }
  ],
  "scene": 0,
  "scenes": [
    {
      "name": "Scene",
      "nodes": [
        0
      ]
    }
  ],
  "textures": [
    {
      "source": 0
    }
  ]
}
