{
  "accessors": [
    {
      "bufferView": 0,
      "componentType": 5126,
      "count": 1403,
      "max": [
        6.399999618530273,
        0.0,
        3.6000001430511475
      ],
      "min": [
        -6.399999618530273,
        0.0,
        -3.6000001430511475
      ],
      "normalized": false,
      "type": "VEC3"
    },
    {
      "bufferView": 1,
      "componentType": 5126,
      "count": 1403,
      "normalized": false,
      "type": "VEC3"
    },
    {
      "bufferView": 2,
      "componentType": 5126,
      "count": 1403,
      "normalized": false,
      "type": "VEC2"
    },
    {
      "bufferView": 3,
      "componentType": 5123,
      "count": 6144,
      "normalized": false,
      "type": "SCALAR"
    }
  ],
  "asset": {
    "generator": "Khronos glTF Blender I/O v1.3.48",
    "version": "2.0"
  },
  "bufferViews": [
    {
      "buffer": 0,
      "byteLength": 16836,
      "target": 34962
    },
    {
      "buffer": 0,
      "byteLength": 16836,
      "byteOffset": 16836,
      "target": 34962
    },
    {
      "buffer": 0,
      "byteLength": 11224,
      "byteOffset": 33672,
      "target": 34962
    },
    {
      "buffer": 0,
      "byteLength": 12288,
      "byteOffset": 44896,
      "target": 34963
    },
    {
      "buffer": 0,
      "byteLength": 32820,
      "byteOffset": 57184,
      "target": 34962
    }
  ],
  "buffers": [
    {
      "byteLength": 90004,
      "uri": "plane_single.bin"
    }
  ],
  "images": [
    {
      "name": "front",
      "uri": "front.png"
    }
  ],
  "materials": [
    {
      "doubleSided": true,
      "name": "front",
      "pbrMetallicRoughness": {
        "baseColorTexture": {
          "index": 0
        },
        "metallicFactor": 0.0,
        "roughnessFactor": 0.5
      }
    }
  ],
  "meshes": [
    {
      "name": "front_vline",
      "primitives": [
        {
          "attributes": {
            "NORMAL": 1,
            "POSITION": 0,
            "TEXCOORD_0": 2
          },
          "indices": 3,
          "material": 0,
          "mode": 4
        }
      ]
    }
  ],
  "nodes": [
    {
      "mesh": 0,
      "name": "front_vline"
    },
    {
      "name": "Light",
      "rotation": [
        0.16907575726509094,
        0.7558803558349609,
        -0.27217137813568115,
        0.570947527885437
      ],
      "translation": [
        4.076245307922363,
        5.903861999511719,
        -1.0054539442062378
      ]
    },
    {
      "name": "Camera",
      "rotation": [
        0.483536034822464,
        0.33687159419059753,
        -0.20870360732078552,
        0.7804827094078064
      ],
      "translation": [
        7.358891487121582,
        4.958309173583984,
        6.925790786743164
      ]
    }
  ],
  "scene": 0,
  "scenes": [
    {
      "name": "Scene",
      "nodes": [
        0,
        1,
        2
      ]
    }
  ],
  "textures": [
    {
      "source": 0
    }
  ]
}
